<svg xmlns="http://www.w3.org/2000/svg" viewBox="0 0 68 78" width="64" height="64">
  <rect width="68" height="78" rx="12" fill="#2a1f19" />
  <path d="M11 15 H55 L50 63 A6 6 0 0 1 44 68 H22 A6 6 0 0 1 16 63 Z" fill="#6f4a2c" />
  <path d="M11 15 H55 L52.5 39 H13.5 Z" fill="#c08a52" />
  <path d="M11 15 H55 L50 63 A6 6 0 0 1 44 68 H22 A6 6 0 0 1 16 63 Z" fill="none" stroke="#f5eee3" stroke-width="3.5" stroke-linejoin="round" />
  <path d="M55 24 A11 11 0 0 1 53 46" fill="none" stroke="#f5eee3" stroke-width="3.5" stroke-linecap="round" />
</svg>
